<svg width="563" height="590" viewBox="0 0 563 590" fill="none" xmlns="http://www.w3.org/2000/svg">
<g filter="url(#filter0_d_64_39)">
<path d="M30.2322 36.73C30.2322 93.7826 30.8402 116.711 30.8402 177.386M30.8402 177.386C30.8402 238.061 30.7462 348.647 30.2322 422.972C29.7183 497.298 29.3196 569.643 29.3196 569.643C29.3196 580.141 28.1954 567.753 28.2774 562.167C28.3799 555.184 29.3634 356.526 29.3634 339.184C29.3634 321.841 30.2322 233.559 30.8402 177.386Z" stroke="black" stroke-width="6" stroke-miterlimit="10" stroke-linecap="round" stroke-linejoin="round"/>
<path d="M455.793 561.46C539.238 561.46 527.583 561.46 555 561.46C554.528 561.734 550.277 562.778 548.523 562.99C546.33 563.255 488.801 563.11 476.523 563.11C434.493 563.11 244.627 562.123 232.201 562.123M455.793 561.46C455.793 561.46 254.533 563.11 222.434 563.11C190.335 563.11 197.927 563.155 130.163 563.11C79.5004 563.077 18.92 563.11 14.8433 563.11C10.7667 563.11 12.2709 561.131 12.2709 561.131C40.7665 562.123 90.3593 562.123 155.492 562.123C177.936 562.123 204.189 562.123 232.201 562.123M455.793 561.46C394.791 561.46 308.336 562.123 232.201 562.123" stroke="black" stroke-width="6" stroke-miterlimit="10" stroke-linecap="round" stroke-linejoin="round"/>
<path d="M540.447 307.402C540.447 373.796 541.8 415.57 541.8 458.981C541.8 502.393 541.109 575.937 541.109 575.937C541.109 575.937 539.517 579.036 539.517 572.98C539.517 566.924 540.558 523.87 540.447 461.996C540.335 400.123 540.34 335.287 540.447 307.402ZM540.447 307.402C540.446 276.104 539.724 212.171 539.767 176.594C539.814 136.701 539.767 79.2511 539.767 40.73" stroke="black" stroke-width="6" stroke-miterlimit="10" stroke-linecap="round" stroke-linejoin="round"/>
<path d="M22.9997 50.5922C52.2193 50.5922 77.7128 50.5922 92.744 50.5922M92.744 50.5922C107.775 50.5922 174.513 50.8837 202.772 50.8837M92.744 50.5922C92.744 50.5922 125.34 49.6846 144.451 49.6846C163.562 49.6846 202.772 50.8837 202.772 50.8837M560 50.8837C530.093 50.8837 543.921 50.5922 514.216 50.5922C497.284 50.5922 476.571 51.078 446.877 50.8837M282.314 49.6846C302.864 49.7127 410.276 50.6442 446.877 50.8837M282.314 49.6846C261.061 49.6556 231.03 50.8837 202.772 50.8837M282.314 49.6846C282.314 49.6846 333.843 49.6846 362.703 49.6846M446.877 50.8837C446.877 50.8837 391.563 49.6846 362.703 49.6846M202.772 50.8837C220.092 50.8837 260.25 50.8837 282.314 50.8837C304.378 50.8837 345.1 50.0843 362.703 49.6846" stroke="black" stroke-width="6" stroke-miterlimit="10" stroke-linecap="round" stroke-linejoin="round"/>
<rect x="77" y="105.73" width="416" height="400" fill="#494848" fill-opacity="0.19" stroke="black" stroke-width="4"/>
<g filter="url(#filter1_d_64_39)">
<rect x="10" y="136.73" width="90.0111" height="90.0111" rx="45.0056" fill="#FFDC58" stroke="black" stroke-width="2"/>
<path fill-rule="evenodd" clip-rule="evenodd" d="M53.7976 209.295C53.797 209.286 53.7897 209.279 53.7807 209.279C52.6101 209.25 51.412 209.135 50.2331 208.805C49.8022 208.684 49.3621 208.566 48.948 208.365C48.2188 208.019 47.5411 207.522 47.0077 206.906C46.7385 206.593 46.5079 206.28 46.3015 205.909C46.0851 205.537 45.9589 205.107 45.9086 204.674C45.8576 204.29 45.8986 203.894 45.9931 203.52C46.0957 203.145 46.2785 202.804 46.4917 202.492C47.0643 201.706 48.0348 201.235 48.9406 201.322C49.2247 201.34 49.1843 201.486 49.0021 201.709C48.8075 201.906 48.5452 202.308 48.2536 202.528C47.9732 202.718 47.811 203.005 47.63 203.222C47.4628 203.458 47.3552 203.718 47.3074 203.982C47.2359 204.242 47.2228 204.522 47.2782 204.812C47.3354 205.101 47.479 205.389 47.6742 205.729C47.9117 206.106 48.2387 206.434 48.616 206.702C49.0003 206.964 49.4292 207.166 49.8713 207.343C50.8486 207.731 51.9477 207.9 53.0581 207.97C53.7438 208.009 54.4401 208.019 55.1252 207.98C56.1653 207.919 57.2141 207.79 58.1995 207.485C58.9716 207.269 59.6866 206.939 60.3686 206.564C60.5203 206.482 60.6614 206.392 60.8094 206.304C61.359 205.978 61.5654 205.919 61.8153 206.009C61.8712 206.028 61.9353 206.04 61.98 206.065C62.1212 206.135 62.0167 206.451 61.6369 206.812C61.0705 207.338 60.409 207.804 59.6891 208.178C59.3285 208.362 58.958 208.541 58.5725 208.678C58.1833 208.801 57.7867 208.904 57.3869 208.985C56.2068 209.233 54.9996 209.313 53.8149 209.312C53.8057 209.312 53.7981 209.305 53.7976 209.295V209.295Z" fill="#231F20"/>
<path fill-rule="evenodd" clip-rule="evenodd" d="M57.0058 209.737C57.0042 209.733 56.9994 209.73 56.9948 209.731C56.3602 209.899 55.7145 210.019 55.067 210.118C54.8277 210.151 54.5933 210.182 54.3533 210.214C53.5078 210.275 52.6573 210.256 51.8193 210.139C51.4463 210.09 51.0745 210.024 50.7077 209.946C50.2427 209.829 49.754 209.709 49.3574 209.403C49.2312 209.314 49.3312 209.199 49.5103 209.128C49.6937 209.054 49.9299 209.036 50.1662 209.111C50.9918 209.421 51.897 209.56 52.8252 209.642C53.3835 209.684 53.9672 209.622 54.5348 209.54C55.1628 209.469 55.7857 209.339 56.403 209.185C56.7835 209.094 57.1572 208.97 57.5314 208.854L58.3744 208.555C58.6499 208.443 58.9234 208.324 59.1932 208.202C59.606 207.998 59.9896 207.757 60.3894 207.542L60.6474 207.391C60.9769 207.213 61.1074 207.199 61.2355 207.253C61.2647 207.266 61.2989 207.275 61.3213 207.291C61.3953 207.343 61.3026 207.486 61.0882 207.673C60.4559 208.237 59.6931 208.7 58.8793 209.063C58.2844 209.348 57.6556 209.567 57.0169 209.743C57.0122 209.744 57.0074 209.742 57.0058 209.737V209.737Z" fill="#231F20"/>
<path fill-rule="evenodd" clip-rule="evenodd" d="M58.2373 213.732C58.2421 213.736 58.249 213.736 58.2536 213.732C58.4522 213.56 58.6226 213.318 58.779 213.065C58.84 212.974 58.8623 212.857 58.9195 212.76C59.1148 212.408 59.287 212.027 59.4579 211.633C59.54 211.461 59.5997 211.278 59.6668 211.095C59.7576 210.863 59.816 210.599 60.0771 210.41C60.1517 210.351 60.2375 210.468 60.3159 210.61C60.3905 210.76 60.4812 210.884 60.4576 211.005C60.3445 211.394 60.2954 211.899 60.015 212.336C59.8633 212.602 59.8011 212.918 59.6656 213.209C59.522 213.53 59.3292 213.839 59.1135 214.133C58.9581 214.302 58.8219 214.481 58.6329 214.622V214.622C58.4977 214.732 58.3524 214.829 58.199 214.912L58.1959 214.913C58.0467 215.009 57.8788 215.058 57.7159 215.119C57.591 215.177 57.466 215.216 57.3361 215.252C57.2086 215.286 57.0743 215.347 56.9425 215.357C56.8847 215.365 56.8275 215.366 56.7685 215.361C56.5503 215.334 56.4862 215.268 56.4701 215.048C56.4657 215.002 56.4589 214.956 56.4589 214.914C56.4595 214.781 56.5583 214.614 56.6852 214.553C57.0737 214.361 57.3628 214.297 57.6457 214.159C57.8318 214.037 58.045 213.935 58.2195 213.734C58.224 213.729 58.2319 213.728 58.2373 213.732V213.732Z" fill="#231F20"/>
<path fill-rule="evenodd" clip-rule="evenodd" d="M48.4616 202.776C48.4564 202.769 48.4468 202.766 48.4384 202.77C48.2854 202.833 48.1066 202.903 47.9517 203.023C47.8945 203.068 47.8603 203.133 47.8031 203.18C47.5942 203.343 47.3884 203.535 47.2367 203.761C47.1807 203.86 47.1459 203.978 47.1528 204.08C47.149 204.227 47.2013 204.305 47.0931 204.417C47.0545 204.455 46.8146 204.568 46.5466 204.596C46.288 204.64 45.9498 204.516 45.9231 204.345C45.8528 204.038 45.9131 203.769 46.007 203.545C46.0978 203.316 46.2383 203.127 46.4074 202.968C46.6138 202.786 46.7051 202.536 46.8854 202.342C47.0856 202.135 47.307 201.949 47.5594 201.796C47.7073 201.697 47.8826 201.63 48.048 201.556V201.556C48.3078 201.448 48.5922 201.401 48.8729 201.379C48.8763 201.379 48.8796 201.379 48.883 201.379C48.9967 201.377 49.113 201.349 49.2317 201.344C49.348 201.35 49.4711 201.356 49.5929 201.376C49.6489 201.38 49.6899 201.41 49.7347 201.438C49.8901 201.561 49.8938 201.669 49.7825 201.891C49.7571 201.942 49.7334 201.992 49.7048 202.039C49.6091 202.195 49.4655 202.306 49.3542 202.365C49.0085 202.56 48.9905 202.618 48.8444 202.652C48.7533 202.672 48.6223 202.712 48.4865 202.782C48.4779 202.787 48.4672 202.784 48.4616 202.776V202.776Z" fill="#231F20"/>
<path fill-rule="evenodd" clip-rule="evenodd" d="M37.7841 192.322C37.7873 192.318 37.7873 192.313 37.7841 192.309C36.2967 190.584 34.9565 188.715 33.8848 186.691C33.6778 186.327 33.4981 185.949 33.3215 185.57C33.1344 185.195 32.9659 184.812 32.8223 184.418C31.7257 181.677 31.2774 178.683 31.4962 175.757C31.5317 175.106 31.6399 174.461 31.7182 173.815C31.8575 173.179 31.9352 172.53 32.1186 171.911C32.4847 170.301 33.1102 168.701 34.0794 167.35C34.384 166.93 34.4114 167.038 34.2634 167.454C34.1092 167.87 33.8506 168.623 33.5074 169.477C33.3557 169.857 33.2215 170.244 33.1015 170.635C32.9802 171.023 32.8982 171.432 32.7825 171.826C32.6694 172.223 32.5674 172.622 32.4997 173.028C32.4288 173.433 32.3219 173.833 32.279 174.243C32.0191 175.871 31.9998 177.532 32.1584 179.182C32.3467 181.162 32.9635 183.17 33.8239 185.015C34.7595 187.052 35.9582 188.977 37.3676 190.742C38.2236 191.836 39.1493 192.88 40.1229 193.876C41.5907 195.393 43.1655 196.823 44.7707 198.178C46.0197 199.231 47.2905 200.207 48.5469 201.231C48.8223 201.459 49.0996 201.672 49.3682 201.913C50.3734 202.796 50.6451 203.139 50.7446 203.446C50.7682 203.515 50.808 203.597 50.8136 203.644C50.8298 203.806 50.3809 203.495 49.6305 202.885C47.3893 201.09 44.9628 199.231 42.6563 197.192C40.9475 195.678 39.2902 194.077 37.7841 192.335C37.7809 192.331 37.7809 192.326 37.7841 192.322V192.322Z" fill="#231F20"/>
<path fill-rule="evenodd" clip-rule="evenodd" d="M34.808 166.169C34.8182 166.174 34.8302 166.171 34.8368 166.162C35.8129 164.861 36.9615 163.716 38.2143 162.71C39.5012 161.742 40.8789 160.908 42.3343 160.239C45.255 158.941 48.4431 158.234 51.6535 158.334C52.8248 158.37 53.9936 158.505 55.1238 158.73C55.6933 158.842 56.2609 158.978 56.8235 159.144C57.3862 159.307 57.9364 159.545 58.4897 159.748C60.407 160.586 62.1129 161.877 63.4732 163.435C64.8397 164.993 65.8698 166.807 66.5761 168.717C68.011 172.539 68.2864 176.688 67.7517 180.652C67.5379 182.418 67.1624 184.161 66.6986 185.87C66.2503 187.586 65.6616 189.253 65.0362 190.89C64.2298 192.994 63.2625 195.037 62.1838 197.014C61.1139 198.997 59.8978 200.896 58.578 202.709C57.7505 203.837 57.7095 203.575 58.177 202.473C58.4163 201.926 58.7545 201.153 59.1866 200.241C59.6031 199.32 60.1192 198.263 60.7085 197.138C61.7592 195.143 62.6588 193.079 63.5198 191.01C64.3629 188.932 65.0828 186.807 65.6261 184.641C66.7228 180.321 67.0616 175.78 66.0172 171.447C65.6989 170.16 65.2519 168.891 64.6625 167.685C64.0707 166.479 63.3041 165.359 62.4095 164.361C61.5118 163.367 60.4754 162.489 59.3047 161.84C58.1359 161.19 56.8944 160.692 55.5714 160.385C49.7834 158.937 43.3315 160.443 38.6955 164.249C37.2786 165.422 36.0471 166.824 35.1431 168.418C34.9404 168.827 34.7228 169.231 34.5295 169.645L34.0539 170.931C33.8164 171.826 33.569 172.722 33.4484 173.642L33.362 174.162L33.3184 174.686L33.2351 175.736L33.242 176.79L33.2476 177.317L33.2967 177.842C33.3806 179.248 33.7051 180.63 34.1043 181.981C34.5121 183.334 35.1008 184.627 35.7412 185.887C36.4114 187.133 37.1711 188.33 37.9973 189.477C40.5948 193.038 43.7928 195.997 47.0716 198.893C47.7965 199.532 48.5189 200.142 49.2407 200.806C51.9221 203.24 52.6507 204.308 52.7906 205.174C52.8211 205.371 52.854 205.619 52.8378 205.732C52.8217 205.829 52.7608 205.82 52.6563 205.733C52.5469 205.644 52.4331 205.473 52.2006 205.253C51.7735 204.807 51.0635 204.112 50.0806 203.249C47.135 200.721 43.9656 198.15 41.0666 195.175C38.1733 192.211 35.4652 188.839 33.6852 184.878C33.0219 183.413 32.5251 181.863 32.1807 180.276C31.8295 178.686 31.7399 177.042 31.7903 175.414C31.8506 173.779 32.1751 172.174 32.5985 170.608C33.0896 169.023 33.836 167.526 34.7787 166.178C34.7853 166.168 34.7975 166.165 34.808 166.169V166.169Z" fill="#231F20"/>
<path fill-rule="evenodd" clip-rule="evenodd" d="M50.9002 208.264C50.8993 208.273 50.9056 208.282 50.9148 208.283C52.4948 208.57 54.1744 208.522 55.8212 208.254C56.4199 208.149 57.0267 207.982 57.6074 207.855C58.584 207.601 59.5794 207.136 60.4877 206.597C61.3941 206.05 62.2396 205.379 62.829 204.564C63.3257 203.829 63.442 202.948 63.0012 202.226C62.727 201.768 62.267 201.39 61.7709 201.08C61.2642 200.781 60.7239 200.51 60.1495 200.305C59.7926 200.185 59.8461 200.068 60.2135 199.964C60.5679 199.883 61.2971 199.769 62.0401 200.101C62.6885 200.39 63.327 200.783 63.8442 201.415C63.9758 201.566 64.0815 201.74 64.1729 201.924C64.3672 202.316 64.4908 202.742 64.5256 203.178V203.178C64.5312 203.394 64.4939 203.608 64.4715 203.823C64.3074 204.663 63.8703 205.33 63.3966 205.883C62.9191 206.443 62.3571 206.865 61.7789 207.246C61.0851 207.697 60.3658 208.103 59.613 208.464C59.2362 208.645 58.8495 208.811 58.4485 208.954C58.2502 209.03 58.0351 209.084 57.8299 209.148L57.2312 209.279C55.4855 209.667 53.6758 209.871 51.866 209.718C50.7538 209.621 49.6472 209.388 48.5934 208.98C47.7976 208.662 47.0472 208.212 46.387 207.641C45.7361 207.061 45.2039 206.311 44.9409 205.442C44.7507 204.769 44.7221 204.012 44.9515 203.324C45.1877 202.639 45.6298 202.049 46.157 201.597C46.3895 201.396 46.6251 201.212 46.8893 201.057C47.3767 200.77 47.7429 200.684 48.0003 200.652C48.2626 200.632 48.4317 200.691 48.5834 200.816C48.6524 200.872 48.7345 200.921 48.7793 200.979C48.9297 201.181 48.5797 201.472 48.0034 201.836C47.1448 202.364 46.423 203.096 46.226 203.877C46.1066 204.266 46.1284 204.65 46.2197 205.056C46.3304 205.462 46.5685 205.858 46.8595 206.228C47.782 207.317 49.3101 207.973 50.8853 208.245C50.8946 208.246 50.9011 208.255 50.9002 208.264V208.264Z" fill="#231F20"/>
<path fill-rule="evenodd" clip-rule="evenodd" d="M49.2433 205.324C49.2406 205.332 49.2445 205.341 49.2522 205.344C50.1277 205.709 51.1007 205.947 52.0957 206.064C52.4613 206.109 52.8312 206.103 53.1999 206.117C54.5017 206.174 55.8327 206.078 57.1078 205.753C57.6717 205.607 58.2263 205.408 58.7342 205.147C59.3876 204.805 59.9565 204.363 60.4613 203.873C60.6217 203.721 60.741 203.808 60.7634 204.077C60.7995 204.352 60.6863 204.828 60.3146 205.167C58.9953 206.315 57.3627 206.85 55.7376 207.009C54.7641 207.102 53.76 207.251 52.7585 207.223C51.6612 207.19 50.5577 207.047 49.4952 206.704C48.843 206.494 48.2052 206.213 47.6164 205.834C47.1731 205.543 46.7591 205.191 46.4184 204.767C46.2592 204.546 46.0995 204.326 45.9807 204.079C45.8446 203.858 45.7451 203.505 45.7513 203.206C45.7582 202.719 45.944 202.287 46.1821 201.926C46.424 201.565 46.7274 201.259 47.0774 201.01C47.2291 200.897 47.387 200.797 47.5611 200.712C48.225 200.416 48.5284 200.531 48.6776 200.793C48.7131 200.854 48.7547 200.912 48.7721 200.972C48.8188 201.174 48.6037 201.359 48.2841 201.535C47.7967 201.791 47.3379 202.212 47.0886 202.647C46.9636 202.862 46.9089 203.072 46.9213 203.211C46.9232 203.283 46.945 203.338 46.9729 203.397C47.0065 203.469 47.0998 203.619 47.1563 203.728C47.5911 204.407 48.3524 204.949 49.2342 205.304C49.2421 205.307 49.2461 205.316 49.2433 205.324V205.324Z" fill="#231F20"/>
<path fill-rule="evenodd" clip-rule="evenodd" d="M52.8178 211.012C52.8166 211.022 52.8226 211.03 52.8318 211.033C53.6474 211.222 54.5336 211.25 55.4174 211.171C55.7438 211.148 56.0609 211.057 56.3854 211.004C57.5337 210.817 58.6683 210.459 59.7538 209.984C60.23 209.762 60.6857 209.491 61.0985 209.182C61.6437 208.792 62.0777 208.309 62.5259 207.86C62.677 207.724 62.8119 207.808 62.8759 208.066C62.9058 208.193 62.9313 208.38 62.8933 208.574C62.8486 208.753 62.7622 208.952 62.6241 209.129C61.589 210.283 60.3009 211.11 58.8741 211.546C58.0192 211.791 57.1681 212.147 56.2667 212.303C55.2825 212.482 54.2692 212.544 53.2577 212.443C52.6372 212.377 52.0124 212.23 51.4274 212.022C50.5402 211.696 49.7022 211.196 49.0071 210.544C48.4644 210.046 47.9652 209.485 47.6064 208.827C47.5331 208.68 47.461 208.536 47.3994 208.382C47.2197 207.796 47.3223 207.572 47.5685 207.39C47.6251 207.348 47.6761 207.3 47.7301 207.272C47.9036 207.181 48.1672 207.356 48.396 207.675C48.7323 208.15 49.0251 208.599 49.359 209.01C49.6941 209.419 50.0889 209.772 50.5365 210.071C51.1897 210.51 51.9992 210.831 52.8031 210.992C52.8126 210.994 52.819 211.003 52.8178 211.012V211.012Z" fill="#231F20"/>
<path fill-rule="evenodd" clip-rule="evenodd" d="M49.3782 172.873C49.3865 172.871 49.392 172.863 49.3914 172.854C49.37 172.548 49.3685 172.233 49.3856 171.911L49.4223 171.407L49.4826 171.043C49.5174 170.912 49.5646 170.785 49.6051 170.656C49.7779 170.136 50.182 169.798 50.6607 169.699C51.1444 169.603 51.6486 169.769 52.0365 170.122C52.1304 170.214 52.2286 170.308 52.3063 170.412C52.3927 170.516 52.4748 170.617 52.5102 170.685C52.6091 170.839 52.6874 170.991 52.762 171.143C52.91 171.445 53.0238 171.743 53.1257 172.04C53.3178 172.64 53.4788 173.261 53.5516 173.878C53.8581 176.346 53.4869 178.834 52.407 181.069C52.2087 181.476 51.9768 181.87 51.7207 182.252C51.5908 182.444 51.4167 182.638 51.2637 182.828C51.0816 183.003 50.8963 183.181 50.6881 183.332C49.8369 183.948 48.6968 184.111 47.7623 183.889C46.9224 183.717 46.1776 183.361 45.5019 182.936C44.8248 182.505 44.2162 182.005 43.6654 181.423C43.1058 180.823 42.6713 180.164 42.3057 179.463C41.9445 178.763 41.6473 178.022 41.4981 177.221C41.3514 176.43 41.3247 175.542 41.712 174.719C41.8954 174.32 42.1478 173.961 42.5146 173.659C42.8739 173.357 43.3763 173.181 43.8531 173.196C44.8205 173.228 45.5491 173.811 46.0987 174.343C46.6663 174.895 47.1357 175.522 47.546 176.173C48.9964 178.494 49.8071 181.098 50.5768 183.598C51.0797 185.212 51.5211 186.87 51.8021 188.564C51.9339 189.412 52.0353 190.267 52.0614 191.127C52.0875 191.986 52.0434 192.845 51.9625 193.695C51.8332 194.756 51.6765 194.586 51.5118 193.694C51.421 193.218 51.3017 192.6 51.1643 191.882C51.0001 191.142 50.8354 190.289 50.6781 189.36C50.3971 187.713 49.9277 186.1 49.4248 184.476C48.9349 182.834 48.4456 181.202 47.8512 179.647C47.2557 178.098 46.5314 176.578 45.4876 175.399C45.2302 175.106 44.9392 174.827 44.6663 174.64C44.3828 174.453 44.08 174.337 43.8233 174.338C43.5659 174.331 43.3415 174.423 43.1239 174.633C42.9063 174.844 42.7216 175.161 42.6284 175.467C42.3865 176.244 42.573 177.24 42.9398 178.138C43.3048 179.043 43.8506 179.927 44.5152 180.622C45.2103 181.325 46.0465 181.931 46.9324 182.333C47.8139 182.714 48.7875 182.896 49.5491 182.54C49.97 182.357 50.3318 182.035 50.6309 181.631C50.9349 181.191 51.2034 180.712 51.426 180.21C51.8587 179.199 52.1472 178.109 52.2696 177.001C52.4033 175.893 52.3753 174.766 52.1795 173.682C52.0688 173.146 51.9227 172.617 51.7157 172.111C51.6131 171.861 51.4969 171.623 51.3657 171.417C51.2569 171.247 51.2016 171.181 51.0741 171.108C50.9237 171.023 50.7347 171.113 50.675 171.27C50.642 171.343 50.6141 171.426 50.6023 171.501C50.5749 171.626 50.5444 171.807 50.5388 171.965C50.5065 172.628 50.5817 173.325 50.7111 174.004C50.8422 174.683 51.03 175.357 51.2923 175.989C51.5485 176.604 51.8973 177.25 52.343 177.558C52.7117 177.784 53.1668 177.894 53.6038 177.812C54.0465 177.737 54.481 177.5 54.8621 177.187C55.62 176.555 56.2274 175.651 56.5183 174.712C56.6619 174.268 56.6663 173.757 56.6023 173.273C56.5326 172.796 56.3585 172.321 56.0732 172.078C55.7779 171.833 55.4832 171.836 55.1717 172.131C54.8584 172.431 54.6029 172.885 54.4101 173.348C54.251 173.711 54.1584 174.08 54.067 174.488C53.9644 174.883 53.896 175.286 53.8301 175.688C53.7114 176.494 53.6399 177.305 53.6225 178.117C53.5858 179.741 53.7089 181.363 53.9905 182.963C54.1148 183.668 54.2696 184.351 54.4456 185.048C54.7664 186.344 55.043 187.176 55.1922 187.779C55.3489 188.379 55.3738 188.753 55.3284 189.089C55.3073 189.242 55.3048 189.435 55.2662 189.537C55.1668 189.878 54.3971 188.978 53.707 187.037C52.7079 184.165 52.2081 181.021 52.3449 177.818C52.3878 177.019 52.463 176.215 52.5973 175.414C52.6725 175.016 52.7173 174.611 52.8136 174.212L52.9454 173.605C53.0039 173.375 53.0723 173.169 53.1481 172.958C53.3042 172.541 53.4888 172.131 53.7599 171.716C54.0309 171.32 54.3927 170.834 55.1804 170.572C55.5559 170.487 55.9737 170.479 56.3275 170.651C56.7011 170.773 56.9672 171.002 57.1842 171.243C57.6144 171.736 57.7754 172.254 57.8867 172.737C58.0241 173.465 58.0415 174.132 57.8568 174.902C57.6629 175.603 57.3551 176.2 56.9821 176.757C56.6054 177.309 56.1571 177.815 55.6019 178.244C55.0499 178.665 54.361 179.026 53.5466 179.09C53.3483 179.12 53.1382 179.084 52.9361 179.075C52.7341 179.049 52.5382 178.985 52.3418 178.934C52.1577 178.86 51.9806 178.772 51.8034 178.684C51.6051 178.568 51.4335 178.427 51.2899 178.287C50.7428 177.715 50.4618 177.12 50.2112 176.528C49.7431 175.343 49.463 174.15 49.365 172.893C49.3643 172.884 49.3698 172.876 49.3782 172.873V172.873Z" fill="#231F20"/>
<path fill-rule="evenodd" clip-rule="evenodd" d="M74.0222 174.371C74.0079 174.48 73.8643 174.432 73.6411 174.3C73.5696 174.258 73.4011 174.085 73.3955 174.042C73.3843 173.959 73.375 173.876 73.38 173.805C73.38 173.762 73.6622 173.312 73.7623 173.153C73.8556 172.998 73.978 172.873 74.1111 172.761C74.3753 172.526 74.6582 172.308 74.9572 172.109C75.0237 172.066 75.0983 172.035 75.1779 172.014C75.4552 171.949 75.6939 171.826 75.9302 171.683C75.97 171.66 76.016 171.648 76.0383 171.589C76.0676 171.481 76.7782 171.199 76.8863 171.212C77.1456 171.223 77.393 171.21 77.6448 171.241C77.6802 171.246 77.7132 171.22 77.7536 171.27C77.8462 171.384 77.9134 171.353 77.9874 171.353C78.0887 171.351 78.1919 171.362 78.2951 171.396C78.3461 171.412 78.4002 171.479 78.4512 171.531C78.4972 171.578 78.4853 171.764 78.4729 171.785C78.4356 171.847 78.4754 171.931 78.4841 172.007V172.007C78.4906 172.06 78.4761 172.11 78.4382 172.148C78.3986 172.187 78.3408 172.241 78.2798 172.295C78.1033 172.451 77.8677 172.579 77.6479 172.665V172.665C77.4751 172.733 77.3004 172.815 77.2674 172.841V172.841C77.1949 172.89 77.0975 172.858 77.0211 172.901C76.9864 172.92 76.9468 172.943 76.9063 172.967C76.7131 173.081 76.5176 173.272 76.2982 173.226C76.289 173.224 76.2794 173.222 76.2696 173.219C76.2392 173.211 76.2211 173.228 76.2012 173.24C76.0303 173.347 75.8344 173.411 75.6448 173.496C75.5497 173.541 75.4683 173.608 75.3806 173.666C75.3644 173.676 75.3402 173.675 75.3203 173.68C75.2954 173.686 75.2674 173.688 75.2482 173.703C75.0455 173.848 74.8061 173.954 74.6358 174.146C74.5948 174.186 74.3026 174.279 74.2609 174.335C74.2367 174.365 74.0278 174.326 74.0222 174.371" fill="#231F20"/>
<path fill-rule="evenodd" clip-rule="evenodd" d="M68.0316 160.518C68.0167 160.63 67.8643 160.579 67.6318 160.445C67.5578 160.402 67.3825 160.224 67.3757 160.18C67.3626 160.093 67.3514 160.007 67.3539 159.932C67.3539 159.887 67.6244 159.405 67.7151 159.23C67.8009 159.062 67.9178 158.925 68.0446 158.801C68.3039 158.549 68.5805 158.318 68.8553 158.097C68.9169 158.048 68.9877 158.011 69.0661 157.989C69.3347 157.909 69.5498 157.76 69.7437 157.585C69.7761 157.556 69.8171 157.538 69.8214 157.471C69.8326 157.362 70.3853 156.952 70.4748 156.932C70.7074 156.883 70.9162 156.801 71.1363 156.732C71.1687 156.723 71.1842 156.689 71.2451 156.722C71.3869 156.801 71.4273 156.741 71.4895 156.712C71.5759 156.669 71.6648 156.631 71.7698 156.612C71.8221 156.602 71.9085 156.636 71.9849 156.658C72.0546 156.677 72.1671 156.852 72.1696 156.879C72.1764 156.957 72.266 157.011 72.3231 157.076C72.3424 157.098 72.3679 157.126 72.381 157.146V157.146C72.6746 157.539 71.9442 158.093 71.5866 158.429C71.5238 158.489 71.4769 158.534 71.4621 158.552C71.4298 158.591 71.3688 158.591 71.3166 158.602C71.2918 158.609 70.8093 159.065 70.7876 159.074C70.6657 159.134 70.5843 159.25 70.4052 159.222C70.3698 159.216 70.3511 159.236 70.3306 159.253C70.154 159.394 69.9427 159.481 69.7425 159.584C69.6418 159.637 69.5603 159.716 69.4683 159.78C69.4515 159.793 69.4248 159.79 69.4043 159.797C69.3775 159.804 69.3471 159.806 69.3272 159.823C69.127 159.997 68.8628 160.092 68.6862 160.294C68.6427 160.336 68.3287 160.426 68.2852 160.484C68.2591 160.514 68.0378 160.472 68.0316 160.518" fill="#231F20"/>
<path fill-rule="evenodd" clip-rule="evenodd" d="M59.9806 213.647C59.9742 213.644 59.9661 213.646 59.9619 213.652C59.6346 214.117 59.2461 214.587 58.7303 214.953C58.5345 215.078 58.3511 215.228 58.1248 215.306C57.7362 215.467 57.2793 215.508 56.8832 215.445C56.4816 215.384 56.1179 215.247 55.7922 215.071C55.5024 214.915 55.2227 214.756 54.9566 214.583C54.7881 214.47 54.6153 214.362 54.4592 214.233C54.3094 214.096 54.1832 213.933 54.0781 213.755C54.0141 213.642 54.1322 213.55 54.3225 213.496V213.496C54.75 213.383 55.1544 213.631 55.5306 213.863C55.9482 214.122 56.3666 214.339 56.7831 214.5C57.1649 214.637 57.5236 214.532 57.873 214.339C58.2541 214.132 58.5929 213.79 58.8851 213.384C59.0685 213.137 59.232 212.862 59.3887 212.583C59.6206 212.154 59.8549 211.711 60.0576 211.254C60.2118 210.897 60.3169 210.516 60.4853 210.152C60.5233 210.072 60.5519 209.988 60.596 209.91C60.7775 209.63 60.9236 209.597 61.1854 209.704C61.242 209.727 61.2973 209.742 61.342 209.765C61.4776 209.829 61.6063 210.08 61.554 210.297C61.4073 210.948 61.1356 211.556 60.8105 212.199C60.5749 212.673 60.3092 213.157 59.9996 213.643C59.9955 213.649 59.9872 213.651 59.9806 213.647V213.647Z" fill="#231F20"/>
<path fill-rule="evenodd" clip-rule="evenodd" d="M51.5796 153.47C51.6486 153.568 51.5137 153.657 51.2707 153.738C51.1929 153.764 50.9561 153.768 50.9194 153.741C50.8498 153.689 50.7795 153.637 50.7279 153.583C50.6999 153.549 50.5097 153.024 50.4183 152.852C50.3356 152.684 50.2921 152.514 50.256 152.344C50.1839 151.998 50.0776 151.659 50.0173 151.316C50.0018 151.24 50.0036 151.162 50.0173 151.082C50.0677 150.805 50.0204 150.541 49.9315 150.285C49.9166 150.242 49.9154 150.195 49.8532 150.163C49.8291 150.152 49.8015 150.107 49.7739 150.043C49.5709 149.574 49.6698 149.047 49.7344 148.54V148.54C49.7388 148.503 49.7121 148.472 49.7655 148.428C49.8899 148.323 49.8457 148.257 49.8544 148.178C49.8563 148.151 49.8581 148.123 49.8603 148.095C49.8733 147.928 49.9608 147.785 50.0608 147.651V147.651C50.1044 147.593 50.2306 147.586 50.2542 147.597C50.312 147.631 50.3711 147.577 50.4245 147.559C50.4432 147.552 50.4674 147.544 50.4848 147.542C50.5136 147.537 50.6641 147.633 50.8162 147.746C51.0683 147.932 51.2305 148.217 51.3565 148.504V148.504C51.4534 148.725 51.5591 148.956 51.5865 149.002V149.002C51.6444 149.096 51.6067 149.219 51.6419 149.324C51.7133 149.536 51.8312 149.887 51.8308 149.909C51.8376 150.059 51.9129 150.2 51.8053 150.37C51.7848 150.403 51.796 150.432 51.8028 150.462C51.8575 150.714 51.8389 150.979 51.8345 151.239C51.832 151.372 51.8619 151.501 51.8625 151.634C51.8631 151.657 51.8451 151.683 51.8376 151.708C51.8283 151.739 51.8128 151.77 51.8146 151.8C51.8364 152.111 51.7767 152.426 51.8233 152.732C51.8333 152.803 51.7015 153.149 51.7183 153.229C51.7264 153.275 51.5504 153.432 51.5796 153.47" fill="#231F20"/>
<path fill-rule="evenodd" clip-rule="evenodd" d="M31.4504 154.561C31.3179 154.544 31.3857 154.367 31.5797 154.107C31.6412 154.025 31.8781 153.828 31.9291 153.82C32.0279 153.801 32.1243 153.785 32.2026 153.783C32.2486 153.787 32.7006 154.027 32.8728 154.078C33.0332 154.136 33.1638 154.224 33.2893 154.321L34.0882 154.878C34.1479 154.92 34.1976 154.975 34.2424 155.041C34.3916 155.271 34.6055 155.417 34.8411 155.53C34.8803 155.549 34.9132 155.581 34.9766 155.558C35.0767 155.522 35.6885 155.885 35.7506 155.969C35.8986 156.174 36.0696 156.347 36.2325 156.535C36.2561 156.562 36.2977 156.563 36.2928 156.633C36.281 156.794 36.3556 156.81 36.4134 156.856C36.4929 156.921 36.5694 156.993 36.6316 157.087C36.6627 157.133 36.6627 157.229 36.6708 157.311C36.6788 157.386 36.5458 157.56 36.5203 157.572C36.4457 157.608 36.4246 157.714 36.3817 157.795C36.3674 157.821 36.3481 157.856 36.3338 157.877C36.3008 157.92 35.6157 157.953 35.5623 157.92C35.5561 157.917 35.3565 157.836 35.1439 157.749C34.9312 157.663 34.7074 157.575 34.6577 157.562C34.6061 157.549 34.5794 157.494 34.5458 157.45C34.5315 157.433 33.87 157.179 33.847 157.158C33.7314 157.069 33.5759 157.036 33.5231 156.849C33.5132 156.812 33.4839 156.802 33.4584 156.789C33.2334 156.668 33.05 156.484 32.8616 156.309C32.764 156.221 32.6484 156.155 32.5433 156.075C32.5247 156.061 32.5178 156.031 32.5041 156.01C32.4867 155.984 32.4755 155.948 32.4519 155.931C32.2032 155.74 32.0149 155.48 31.7531 155.298C31.6891 155.258 31.5561 154.9 31.487 154.853C31.4454 154.827 31.502 154.568 31.4504 154.561" fill="#231F20"/>
</g>
<path d="M516 104.11C516 104.11 518.499 94.9227 518.554 83.7686C518.642 65.7665 512.643 46.8428 513.257 28.851C513.661 16.9872 516.264 0.729997 516.264 0.729997" stroke="black" stroke-width="7"/>
<g filter="url(#filter2_d_64_39)">
<path d="M461.568 455.469V478.059L449.782 472.166C443.299 469.023 437.21 466.273 436.031 466.273C431.513 466.273 434.656 472.362 443.103 479.827C449.192 485.13 451.353 488.077 449.585 488.666C448.014 489.256 436.424 492.399 423.459 495.542C399.298 501.435 394.387 503.988 398.119 507.721C399.494 509.096 408.923 508.506 429.942 505.363C446.442 503.006 460.389 501.631 460.979 502.22C461.568 503.006 458.228 509.881 453.71 517.739C448.996 525.596 445.067 532.668 444.674 533.257C444.281 534.043 445.264 535.615 446.639 536.793C448.996 538.758 450.96 537.775 457.246 532.275C461.568 528.347 465.89 525.204 466.872 525.204C467.854 525.204 469.818 531.097 471.39 538.365C474.729 555.258 477.086 560.562 481.408 560.562C486.712 560.562 487.694 554.473 486.122 531.882C485.337 520.489 485.337 511.453 486.319 511.453C487.301 511.453 495.159 514.596 503.802 518.328C520.892 525.793 526.392 526.775 526.392 522.453C526.392 518.525 523.249 515.775 508.123 505.363C500.855 500.649 494.962 496.131 494.962 495.542C494.962 494.952 504.98 491.613 517.159 488.077C538.964 481.791 548 477.666 548 474.13C548 471.183 535.624 471.773 515.981 475.309C506.552 477.077 498.105 478.059 497.516 477.273C496.926 476.684 498.302 471.576 500.659 466.076C509.498 444.665 503.998 442.7 490.248 462.54C485.14 470.201 480.033 475.702 479.247 474.719C478.461 473.934 476.301 466.076 474.336 457.433C470.408 438.968 467.854 432.878 464.122 432.878C462.157 432.878 461.568 437.986 461.568 455.469Z" fill="#FF6258"/>
<path d="M463.068 478.059V480.486L460.897 479.4L449.127 473.515C449.125 473.514 449.122 473.513 449.12 473.512C445.889 471.945 442.77 470.484 440.318 469.416C439.09 468.88 438.047 468.452 437.249 468.16C436.85 468.013 436.531 467.908 436.292 467.842C436.09 467.786 436.006 467.775 436.003 467.773C435.713 467.775 435.548 467.813 435.468 467.841C435.458 468.024 435.513 468.553 436.036 469.558C437.185 471.767 439.916 475.008 444.092 478.699C447.143 481.357 449.314 483.51 450.5 485.127C451.064 485.896 451.57 486.757 451.665 487.617C451.719 488.096 451.652 488.657 451.312 489.167C450.985 489.658 450.518 489.932 450.088 490.08C449.178 490.416 445.813 491.365 441.18 492.596C436.456 493.851 430.307 495.425 423.815 496.999C411.694 499.955 404.594 502.033 400.986 503.79C400.098 504.222 399.484 504.606 399.078 504.94C398.667 505.277 398.547 505.499 398.515 505.587C398.499 505.63 398.484 505.676 398.538 505.81C398.605 505.977 398.77 506.24 399.125 506.604C399.16 506.62 399.24 506.652 399.388 506.689C399.694 506.767 400.155 506.836 400.81 506.877C402.116 506.96 404.003 506.923 406.557 506.74C411.654 506.376 419.219 505.45 429.72 503.88L429.72 503.88L429.729 503.879C437.995 502.698 445.629 501.762 451.277 501.195C454.098 500.911 456.441 500.718 458.126 500.633C458.963 500.591 459.668 500.574 460.198 500.59C460.458 500.598 460.718 500.615 460.947 500.651C461.06 500.669 461.204 500.697 461.356 500.747C461.47 500.785 461.771 500.891 462.039 501.16L462.115 501.235L462.179 501.32C462.463 501.7 462.524 502.105 462.54 502.331C462.558 502.582 462.534 502.822 462.503 503.023C462.439 503.428 462.308 503.886 462.146 504.358C461.818 505.315 461.287 506.552 460.615 507.97C459.266 510.818 457.281 514.538 455.011 518.487L455.004 518.499L454.997 518.511C452.647 522.428 450.491 526.151 448.873 528.97C448.379 529.831 447.929 530.619 447.536 531.305C446.886 532.444 446.393 533.306 446.12 533.767C446.15 533.853 446.204 533.974 446.293 534.128C446.559 534.59 447.025 535.147 447.607 535.648C448.071 536.033 448.39 536.168 448.644 536.208C448.892 536.248 449.258 536.226 449.868 535.959C451.186 535.382 453.07 533.936 456.248 531.156C458.438 529.165 460.635 527.367 462.425 526.056C463.318 525.402 464.132 524.853 464.806 524.46C465.141 524.265 465.467 524.093 465.767 523.965C466.021 523.858 466.43 523.704 466.872 523.704C467.705 523.704 468.232 524.274 468.421 524.493C468.68 524.795 468.906 525.169 469.101 525.545C469.5 526.311 469.915 527.358 470.33 528.575C471.164 531.028 472.062 534.378 472.856 538.048L472.859 538.061L472.861 538.074C474.533 546.532 475.931 551.922 477.398 555.183C478.128 556.805 478.822 557.775 479.47 558.334C480.071 558.854 480.679 559.062 481.408 559.062C482.412 559.062 483.013 558.793 483.477 558.266C484.014 557.657 484.524 556.523 484.863 554.451C485.542 550.307 485.414 543.314 484.626 531.986L484.626 531.986C484.232 526.268 484.033 521.12 484.058 517.385C484.07 515.527 484.138 513.972 484.275 512.86C484.341 512.318 484.433 511.796 484.578 511.376C484.647 511.174 484.762 510.893 484.963 510.635C485.166 510.375 485.613 509.953 486.319 509.953C486.685 509.953 487.115 510.069 487.41 510.153C487.776 510.258 488.227 510.406 488.744 510.586C489.782 510.949 491.148 511.467 492.739 512.096C495.925 513.356 500.066 515.081 504.396 516.951L504.402 516.954C512.971 520.696 518.462 522.733 521.774 523.335C523.472 523.644 524.267 523.507 524.584 523.345L524.588 523.343C524.694 523.29 524.892 523.189 524.892 522.453C524.892 521.702 524.749 521.044 524.348 520.308C523.926 519.536 523.191 518.626 521.91 517.44C519.332 515.05 514.868 511.827 507.29 506.611C503.637 504.241 500.325 501.917 497.915 500.104C496.712 499.198 495.716 498.407 495.011 497.793C494.663 497.49 494.358 497.206 494.129 496.959C494.018 496.839 493.893 496.694 493.787 496.536C493.733 496.457 493.665 496.346 493.605 496.21C493.552 496.089 493.462 495.85 493.462 495.542C493.462 495.011 493.727 494.655 493.829 494.531C493.954 494.376 494.088 494.267 494.173 494.203C494.35 494.07 494.55 493.956 494.725 493.866C495.09 493.676 495.583 493.462 496.161 493.231C497.33 492.764 498.994 492.17 501.017 491.492C505.069 490.133 510.639 488.408 516.741 486.637L516.744 486.636C527.637 483.495 535.258 480.917 540.137 478.706C542.584 477.597 544.255 476.618 545.292 475.761C546.087 475.103 546.368 474.637 546.459 474.356C546.28 474.265 545.964 474.148 545.455 474.043C544.171 473.777 542.158 473.678 539.416 473.787C533.971 474.004 526.047 475.021 516.252 476.784C511.514 477.672 507.008 478.366 503.597 478.74C501.896 478.926 500.433 479.036 499.337 479.046C498.796 479.051 498.292 479.032 497.874 478.971C497.667 478.94 497.429 478.893 497.199 478.808C497.018 478.741 496.669 478.591 496.384 478.259C496.16 478.006 496.051 477.735 495.994 477.549C495.928 477.333 495.9 477.125 495.888 476.951C495.865 476.605 495.892 476.227 495.939 475.858C496.035 475.109 496.246 474.166 496.537 473.116C497.122 471.004 498.078 468.292 499.276 465.495C501.468 460.183 502.734 456.165 503.218 453.438C503.463 452.06 503.487 451.125 503.394 450.558C503.376 450.443 503.355 450.358 503.337 450.296C503.21 450.33 502.991 450.408 502.657 450.598C501.98 450.984 501.083 451.688 499.97 452.782C497.757 454.957 494.899 458.464 491.488 463.384C488.906 467.255 486.31 470.605 484.236 472.881C483.207 474.01 482.259 474.929 481.474 475.512C481.097 475.792 480.654 476.075 480.19 476.222C479.77 476.355 478.811 476.51 478.125 475.716C477.842 475.405 477.646 474.994 477.523 474.721C477.36 474.358 477.187 473.908 477.009 473.398C476.65 472.373 476.235 471.013 475.79 469.429C474.897 466.255 473.86 462.104 472.874 457.765L472.871 457.755L472.869 457.745C470.904 448.508 469.307 442.495 467.771 438.808C467.002 436.962 466.296 435.821 465.658 435.158C465.159 434.638 464.736 434.442 464.345 434.392C464.323 434.433 464.297 434.486 464.266 434.555C464.031 435.088 463.792 436.083 463.599 437.787C463.217 441.151 463.068 446.716 463.068 455.469V478.059ZM446.086 533.641C446.086 533.641 446.086 533.643 446.086 533.647C446.086 533.643 446.086 533.641 446.086 533.641ZM503.273 450.149C503.273 450.15 503.277 450.158 503.288 450.17C503.279 450.154 503.274 450.148 503.273 450.149ZM464.423 434.27C464.423 434.269 464.419 434.273 464.411 434.283C464.42 434.275 464.423 434.27 464.423 434.27Z" stroke="black" stroke-width="3"/>
</g>
</g>
<defs>
<filter id="filter0_d_64_39" x="-0.000732422" y="0.177155" width="563" height="589.553" filterUnits="userSpaceOnUse" color-interpolation-filters="sRGB">
<feFlood flood-opacity="0" result="BackgroundImageFix"/>
<feColorMatrix in="SourceAlpha" type="matrix" values="0 0 0 0 0 0 0 0 0 0 0 0 0 0 0 0 0 0 127 0" result="hardAlpha"/>
<feOffset dx="-9" dy="10"/>
<feComposite in2="hardAlpha" operator="out"/>
<feColorMatrix type="matrix" values="0 0 0 0 0 0 0 0 0 0 0 0 0 0 0 0 0 0 0.44 0"/>
<feBlend mode="normal" in2="BackgroundImageFix" result="effect1_dropShadow_64_39"/>
<feBlend mode="normal" in="SourceGraphic" in2="effect1_dropShadow_64_39" result="shape"/>
</filter>
<filter id="filter1_d_64_39" x="9" y="135.73" width="94.0111" height="96.0111" filterUnits="userSpaceOnUse" color-interpolation-filters="sRGB">
<feFlood flood-opacity="0" result="BackgroundImageFix"/>
<feColorMatrix in="SourceAlpha" type="matrix" values="0 0 0 0 0 0 0 0 0 0 0 0 0 0 0 0 0 0 127 0" result="hardAlpha"/>
<feOffset dx="2" dy="4"/>
<feComposite in2="hardAlpha" operator="out"/>
<feColorMatrix type="matrix" values="0 0 0 0 0 0 0 0 0 0 0 0 0 0 0 0 0 0 1 0"/>
<feBlend mode="normal" in2="BackgroundImageFix" result="effect1_dropShadow_64_39"/>
<feBlend mode="normal" in="SourceGraphic" in2="effect1_dropShadow_64_39" result="shape"/>
</filter>
<filter id="filter2_d_64_39" x="397" y="432.878" width="151" height="135.448" filterUnits="userSpaceOnUse" color-interpolation-filters="sRGB">
<feFlood flood-opacity="0" result="BackgroundImageFix"/>
<feColorMatrix in="SourceAlpha" type="matrix" values="0 0 0 0 0 0 0 0 0 0 0 0 0 0 0 0 0 0 127 0" result="hardAlpha"/>
<feOffset dy="7.76457"/>
<feComposite in2="hardAlpha" operator="out"/>
<feColorMatrix type="matrix" values="0 0 0 0 0.745098 0 0 0 0 0.74902 0 0 0 0 0.705882 0 0 0 1 0"/>
<feBlend mode="normal" in2="BackgroundImageFix" result="effect1_dropShadow_64_39"/>
<feBlend mode="normal" in="SourceGraphic" in2="effect1_dropShadow_64_39" result="shape"/>
</filter>
</defs>
</svg>
