<svg width="100%" height="100%" preserveAspectRatio="none" viewBox="0 0 310 184" fill="none" xmlns="http://www.w3.org/2000/svg">
<g clip-path="url(#clip0_64_73)">
<g filter="url(#filter0_d_64_73)">
<path d="M177.237 76.0056L176.914 75.0781C177.941 74.4844 178.821 73.9682 179.285 73.6935C179.285 73.6934 179.285 73.6934 179.285 73.6933L179.54 74.1233L177.237 76.0056ZM177.237 76.0056C191.919 73.8446 212.817 77.0024 229.94 85.7572L230.167 85.312L229.94 85.7572C240.093 90.9483 248.878 98.0698 254.307 107.133C259.728 116.183 261.825 127.202 258.557 140.252L258.556 140.253C258.471 140.594 258.124 140.804 257.781 140.719C257.439 140.633 257.229 140.284 257.315 139.94C260.495 127.239 258.424 116.475 253.077 107.628C247.738 98.7955 239.155 91.9077 229.355 86.8975C219.466 81.8418 208.306 78.6637 197.854 77.3307C187.41 75.9987 177.631 76.5039 170.517 78.8547L170.516 78.8548C170.173 78.9686 169.981 78.8908 169.87 78.8154C169.732 78.7228 169.655 78.5884 169.636 78.5491L169.635 78.5485C169.602 78.4812 169.553 78.3621 169.555 78.2271C169.556 78.1131 169.592 77.9477 169.8 77.7557L169.8 77.7556C169.798 77.757 169.805 77.7507 169.826 77.7351C169.846 77.7202 169.873 77.7009 169.907 77.6771C169.976 77.6294 170.069 77.569 170.183 77.4967C170.411 77.3523 170.715 77.1674 171.076 76.9528C171.796 76.524 172.73 75.9834 173.704 75.4234C174.36 75.0467 175.035 74.6608 175.675 74.2949C176.932 73.5769 178.053 72.9361 178.627 72.5935C179.3 72.1928 180.26 71.6926 181.408 71.0966L181.516 71.0404C182.633 70.4607 183.909 69.7978 185.233 69.0654C187.96 67.5564 190.919 65.7346 193.124 63.6986C194.372 62.5484 195.433 61.2945 195.943 59.9495C196.466 58.5704 196.398 57.1184 195.431 55.6616C194.456 54.1905 192.964 53.3674 191.189 52.9926C189.423 52.6199 187.351 52.6832 185.149 52.9982L185.149 52.9982C179.506 53.8062 172.803 56.4305 167.032 59.3213C161.269 62.2081 156.355 65.4012 154.309 67.39L154.309 67.3903C154.054 67.6379 153.65 67.6314 153.404 67.3791L153.404 67.379M177.237 76.0056L153.404 67.379M170.673 79.3295C169.689 79.6554 169.264 78.9237 169.188 78.772C169.09 78.5765 168.839 77.9618 169.461 77.3882C169.793 77.0814 172.899 75.3058 175.435 73.8566C176.688 73.1405 177.801 72.5041 178.371 72.1639C179.081 71.7414 180.095 71.2148 181.284 70.5975C184.708 68.8199 189.58 66.2905 192.786 63.331C195.241 61.0665 196.761 58.57 195.014 55.938L170.673 79.3295ZM170.673 79.3295C184.712 74.6909 209.464 77.2895 229.127 87.3427C248.618 97.3073 263.128 114.671 256.83 139.819L170.673 79.3295ZM153.404 67.379C153.157 67.1254 153.162 66.7206 153.417 66.4723L153.404 67.379Z" fill="black" stroke="black"/>
<path d="M257.633 138.958L258.235 140.243L258.571 138.864C259.112 136.644 259.863 133.589 260.024 133.06L260.025 133.058C262.478 124.906 265.987 117.617 269.646 110.013C270.113 109.045 270.581 108.071 271.05 107.09C271.204 106.77 271.586 106.636 271.903 106.788C272.22 106.94 272.357 107.324 272.205 107.645C271.72 108.659 271.235 109.666 270.752 110.669C267.164 118.119 263.683 125.346 261.249 133.429C261.162 133.72 260.99 134.511 260.78 135.487C260.685 135.927 260.582 136.404 260.475 136.889C260.122 138.485 259.721 140.199 259.386 141.178L259.385 141.18C259.182 141.78 258.963 142.119 258.862 142.224C258.725 142.365 258.589 142.423 258.474 142.449L258.474 142.449L258.468 142.45C258.392 142.469 258.284 142.483 258.17 142.459C258.067 142.437 257.931 142.378 257.789 142.204L257.787 142.201C257.787 142.202 257.787 142.201 257.786 142.201C257.783 142.196 257.77 142.177 257.745 142.136C257.718 142.09 257.685 142.031 257.648 141.961C257.574 141.821 257.489 141.649 257.406 141.476C257.313 141.283 257.215 141.072 257.144 140.919C257.097 140.818 257.062 140.742 257.047 140.712C256.612 139.814 256.191 138.899 255.769 137.979C254.905 136.098 254.031 134.197 253.003 132.381L253.003 132.38C249.607 126.389 244.813 120.852 238.954 117.121C238.657 116.931 238.568 116.536 238.758 116.235C238.949 115.939 239.344 115.85 239.644 116.04C245.648 119.868 250.605 125.551 254.118 131.749L254.118 131.749C255.138 133.547 255.995 135.409 256.863 137.295C257.117 137.848 257.372 138.402 257.633 138.958Z" fill="black" stroke="black"/>
</g>
</g>
<path d="M26.5479 61.4032C25.6713 62.8024 26.9271 66.8122 28.7001 68.2898C30.0602 69.3948 31.0665 68.888 31.3315 66.948C31.6359 64.9033 30.1377 62.0007 28.4323 61.2712C27.1328 60.7009 26.9764 60.7297 26.5479 61.4032Z" fill="black"/>
<path d="M14.8403 62.3338C13.9636 63.733 15.2194 67.7429 16.9925 69.2204C18.3526 70.3254 19.3589 69.8186 19.6238 67.8786C19.9283 65.8339 18.43 62.9313 16.7246 62.2018C15.4252 61.6315 15.2687 61.6603 14.8403 62.3338Z" fill="black"/>
<path d="M9.882 73.7075C10.2414 75.9226 14.3541 80.0018 18.0101 81.7375C19.1377 82.3004 21.0827 82.7032 22.8021 82.7769C25.5026 82.8751 25.8859 82.7851 29.3742 81.1786C32.7215 79.637 33.2388 79.2689 34.8441 77.4042C36.8891 74.9907 38.8425 69.8059 38.2223 68.3601C37.6797 67.095 36.8918 67.7176 35.3133 70.8252C33.5657 74.2272 32.5918 75.4981 30.5581 76.9542C28.6145 78.3254 24.9796 79.3934 22.6936 79.2776C19.9776 79.1433 14.8713 76.3874 12.0948 73.5541C10.6811 72.1275 9.6452 72.1718 9.882 73.7075Z" fill="black"/>
<g filter="url(#filter1_d_64_73)">
<path d="M61.4685 73.0343L54.7873 57.5982L49.3581 59.9481L47.9757 56.7544L62.3473 50.534L63.7296 53.7277L58.3004 56.0776L64.9816 71.5137L61.4685 73.0343ZM74.8823 67.6708C73.942 68.0778 73.0301 68.2829 72.1466 68.2861C71.2555 68.2715 70.4538 68.0497 69.7415 67.6207C69.0392 67.1663 68.4922 66.4866 68.1005 65.5818C67.7089 64.6769 67.5954 63.8307 67.7601 63.0431C67.9349 62.2301 68.3385 61.5077 68.9709 60.8759C69.6133 60.2186 70.4314 59.6749 71.4249 59.2449L75.0444 57.6783L74.7219 56.9331C74.4531 56.3121 74.0391 55.8909 73.4798 55.6695C72.9128 55.4304 72.2035 55.4951 71.3519 55.8637C70.518 56.2247 69.9815 56.6886 69.7423 57.2556C69.4955 57.8048 69.4406 58.4079 69.5775 59.0649L66.041 59.3632C65.9621 58.5969 66.0342 57.8388 66.2575 57.0891C66.4908 56.314 66.9248 55.589 67.5596 54.9139C68.2044 54.2135 69.0946 53.6176 70.2301 53.1261C71.9689 52.3735 73.5321 52.213 74.9198 52.6447C76.3074 53.0763 77.3583 54.1172 78.0725 55.7673L80.2036 60.6908C80.4339 61.2231 80.7975 61.3818 81.2943 61.1667L82.3589 60.706L83.5569 63.4738L81.3213 64.4414C80.6648 64.7256 80.0546 64.8001 79.4905 64.6651C78.9265 64.53 78.5292 64.1963 78.2989 63.664L78.2873 63.6374L77.7817 63.8563C77.8029 64.0999 77.766 64.4529 77.6712 64.9153C77.5687 65.3599 77.309 65.8305 76.8919 66.327C76.4748 66.8235 75.8049 67.2715 74.8823 67.6708ZM74.2929 64.7028C75.2332 64.2957 75.8848 63.7083 76.2476 62.9403C76.6205 62.1469 76.6188 61.3155 76.2425 60.4461L76.1273 60.18L72.7473 61.6429C72.1263 61.9117 71.696 62.256 71.4563 62.6757C71.2166 63.0954 71.2005 63.5448 71.4078 64.0239C71.6152 64.5029 71.9704 64.8126 72.4736 64.953C72.9767 65.0934 73.5831 65.0099 74.2929 64.7028ZM90.7671 60.6059C89.738 61.0513 88.7333 61.2123 87.7529 61.0889C86.7826 60.94 85.9041 60.5408 85.1174 59.8912C84.3306 59.2416 83.703 58.3757 83.2345 57.2934L79.8248 49.4156L83.1782 47.9642L86.4727 55.5758C86.9028 56.5694 87.4648 57.2109 88.1589 57.5003C88.8707 57.7821 89.6791 57.7272 90.584 57.3355C91.613 56.8901 92.2655 56.2074 92.5415 55.2874C92.8098 54.3497 92.6789 53.2688 92.1491 52.0445L89.2462 45.3378L92.5996 43.8864L98.3131 57.0869L95.013 58.5153L94.2642 56.7854L93.7852 56.9927C93.7643 57.5285 93.5532 58.1359 93.152 58.8152C92.7508 59.4944 91.9558 60.0913 90.7671 60.6059ZM102.045 55.4718L93.9812 36.842L97.3346 35.3905L100.387 42.4432L100.866 42.2359C100.885 41.8906 100.984 41.5107 101.163 41.0963C101.342 40.6818 101.641 40.2784 102.061 39.8859C102.491 39.4681 103.097 39.0902 103.877 38.7523C104.906 38.3069 105.906 38.1586 106.876 38.3074C107.857 38.4308 108.74 38.8173 109.527 39.4669C110.306 40.0988 110.934 40.9647 111.41 42.0648L114.819 49.9425L111.466 51.3939L108.172 43.7823C107.741 42.7887 107.171 42.1511 106.459 41.8693C105.765 41.5799 104.965 41.631 104.06 42.0226C103.031 42.468 102.383 43.1596 102.114 44.0973C101.838 45.0173 101.965 46.0894 102.495 47.3136L105.398 54.0203L102.045 55.4718ZM118.445 48.3735L112.731 35.1729L116.084 33.7215L121.798 46.922L118.445 48.3735ZM113.74 32.9036C113.136 33.1647 112.537 33.1922 111.943 32.9862C111.365 32.7725 110.939 32.3463 110.662 31.7075C110.386 31.0688 110.367 30.4659 110.606 29.899C110.863 29.3243 111.293 28.9064 111.896 28.6453C112.517 28.3766 113.116 28.349 113.693 28.5627C114.271 28.7764 114.697 29.2027 114.974 29.8414C115.25 30.4801 115.269 31.083 115.03 31.65C114.791 32.2169 114.361 32.6348 113.74 32.9036ZM130.998 43.3824C129.951 43.8355 128.855 44.0044 127.71 43.8892C126.574 43.7486 125.513 43.2917 124.525 42.5184C123.537 41.7451 122.733 40.6399 122.111 39.2028L121.926 38.7769C121.304 37.3398 121.049 35.9965 121.162 34.7471C121.274 33.4977 121.671 32.4199 122.353 31.5137C123.028 30.5898 123.897 29.8974 124.962 29.4366C125.76 29.0911 126.468 28.9007 127.085 28.8655C127.711 28.8048 128.255 28.8435 128.715 28.9815C129.175 29.1194 129.563 29.3097 129.878 29.5523L130.357 29.3449L127.351 22.3987L130.704 20.9472L138.768 39.577L135.468 41.0054L134.776 39.4086L134.297 39.6159C134.211 40.2433 133.936 40.8992 133.474 41.5838C133.03 42.2606 132.204 42.8602 130.998 43.3824ZM130.742 40.0171C131.771 39.5717 132.49 38.871 132.898 37.915C133.298 36.9413 133.221 35.8157 132.668 34.5382L132.553 34.2721C132 32.9946 131.236 32.1774 130.26 31.8204C129.294 31.438 128.287 31.4734 127.24 31.9265C126.211 32.3719 125.497 33.0814 125.096 34.0552C124.689 35.0111 124.761 36.1279 125.314 37.4053L125.429 37.6715C125.982 38.949 126.751 39.775 127.734 40.1498C128.711 40.5067 129.713 40.4625 130.742 40.0171Z" fill="black"/>
</g>
<defs>
<filter id="filter0_d_64_73" x="151.722" y="50.9786" width="121.045" height="95.993" filterUnits="userSpaceOnUse" color-interpolation-filters="sRGB">
<feFlood flood-opacity="0" result="BackgroundImageFix"/>
<feColorMatrix in="SourceAlpha" type="matrix" values="0 0 0 0 0 0 0 0 0 0 0 0 0 0 0 0 0 0 127 0" result="hardAlpha"/>
<feOffset dx="-1" dy="4"/>
<feComposite in2="hardAlpha" operator="out"/>
<feColorMatrix type="matrix" values="0 0 0 0 0 0 0 0 0 0 0 0 0 0 0 0 0 0 1 0"/>
<feBlend mode="normal" in2="BackgroundImageFix" result="effect1_dropShadow_64_73"/>
<feBlend mode="normal" in="SourceGraphic" in2="effect1_dropShadow_64_73" result="shape"/>
</filter>
<filter id="filter1_d_64_73" x="47.8145" y="20.5746" width="91.1145" height="59.1822" filterUnits="userSpaceOnUse" color-interpolation-filters="sRGB">
<feFlood flood-opacity="0" result="BackgroundImageFix"/>
<feColorMatrix in="SourceAlpha" type="matrix" values="0 0 0 0 0 0 0 0 0 0 0 0 0 0 0 0 0 0 127 0" result="hardAlpha"/>
<feOffset dy="4"/>
<feComposite in2="hardAlpha" operator="out"/>
<feColorMatrix type="matrix" values="0 0 0 0 0.906944 0 0 0 0 0.906944 0 0 0 0 0.906944 0 0 0 0.32 0"/>
<feBlend mode="normal" in2="BackgroundImageFix" result="effect1_dropShadow_64_73"/>
<feBlend mode="normal" in="SourceGraphic" in2="effect1_dropShadow_64_73" result="shape"/>
</filter>
<clipPath id="clip0_64_73">
<rect width="130" height="130" fill="white" transform="translate(213.916) rotate(42.6258)"/>
</clipPath>
</defs>
</svg>
