<svg width="100%" height="100%" viewBox="0 0 591 583" fill="none" xmlns="http://www.w3.org/2000/svg" preserveAspectRatio="none">
<g filter="url(#filter0_d_64_160)">
<path d="M32.2903 3.39062C32.2903 63.1175 32.9267 87.1203 32.9267 150.639M32.9267 150.639C32.9267 214.158 32.8283 329.929 32.2903 407.738C31.7523 485.547 31.3349 561.284 31.3349 561.284C31.3349 572.274 30.158 559.305 30.2439 553.457C30.3512 546.147 31.3808 338.177 31.3808 320.022C31.3808 301.866 32.2903 209.446 32.9267 150.639Z" stroke="black" stroke-width="6.28125" stroke-miterlimit="10" stroke-linecap="round" stroke-linejoin="round"/>
<path d="M477.799 552.718C565.155 552.718 552.955 552.718 581.656 552.718C581.163 553.004 576.712 554.098 574.876 554.319C572.58 554.596 512.354 554.445 499.501 554.445C455.501 554.445 256.735 553.412 243.726 553.412M477.799 552.718C477.799 552.718 267.105 554.445 233.502 554.445C199.898 554.445 207.846 554.492 136.905 554.445C83.8679 554.41 20.4478 554.445 16.1801 554.445C11.9123 554.445 13.4871 552.373 13.4871 552.373C43.3184 553.412 95.2359 553.412 163.422 553.412C186.918 553.412 214.401 553.412 243.726 553.412M477.799 552.718C413.938 552.718 323.43 553.412 243.726 553.412" stroke="black" stroke-width="6.28125" stroke-miterlimit="10" stroke-linecap="round" stroke-linejoin="round"/>
<path d="M566.421 286.75C566.421 356.257 567.838 399.989 567.838 445.435C567.838 490.882 567.114 567.873 567.114 567.873C567.114 567.873 565.448 571.117 565.448 564.777C565.448 558.437 566.538 513.366 566.421 448.591C566.304 383.817 566.309 315.942 566.421 286.75ZM566.421 286.75C566.421 253.985 565.664 187.055 565.709 149.811C565.759 108.047 565.709 47.9049 565.709 7.57812" stroke="black" stroke-width="6.28125" stroke-miterlimit="10" stroke-linecap="round" stroke-linejoin="round"/>
<path d="M24.7188 17.9025C55.308 17.9025 81.9965 17.9025 97.7323 17.9025M97.7323 17.9025C113.468 17.9025 183.335 18.2077 212.918 18.2077M97.7323 17.9025C97.7323 17.9025 131.856 16.9524 151.863 16.9524C171.87 16.9524 212.918 18.2077 212.918 18.2077M586.891 18.2077C555.582 18.2077 570.058 17.9025 538.961 17.9025C521.236 17.9025 499.551 18.4111 468.465 18.2077M296.188 16.9524C317.702 16.9818 430.148 17.9569 468.465 18.2077M296.188 16.9524C273.939 16.922 242.501 18.2077 212.918 18.2077M296.188 16.9524C296.188 16.9524 350.133 16.9524 380.346 16.9524M468.465 18.2077C468.465 18.2077 410.558 16.9524 380.346 16.9524M212.918 18.2077C231.05 18.2077 273.09 18.2077 296.188 18.2077C319.287 18.2077 361.918 17.3709 380.346 16.9524" stroke="black" stroke-width="6.28125" stroke-miterlimit="10" stroke-linecap="round" stroke-linejoin="round"/>
</g>
<defs>
<filter id="filter0_d_64_160" x="0.640182" y="0.25" width="589.391" height="582.063" filterUnits="userSpaceOnUse" color-interpolation-filters="sRGB">
<feFlood flood-opacity="0" result="BackgroundImageFix"/>
<feColorMatrix in="SourceAlpha" type="matrix" values="0 0 0 0 0 0 0 0 0 0 0 0 0 0 0 0 0 0 127 0" result="hardAlpha"/>
<feOffset dx="-9.42188" dy="10.4688"/>
<feComposite in2="hardAlpha" operator="out"/>
<feColorMatrix type="matrix" values="0 0 0 0 0 0 0 0 0 0 0 0 0 0 0 0 0 0 0.44 0"/>
<feBlend mode="normal" in2="BackgroundImageFix" result="effect1_dropShadow_64_160"/>
<feBlend mode="normal" in="SourceGraphic" in2="effect1_dropShadow_64_160" result="shape"/>
</filter>
</defs>
</svg>
