<svg width="67" height="68" viewBox="0 0 67 68" fill="none" xmlns="http://www.w3.org/2000/svg">
<path fill-rule="evenodd" clip-rule="evenodd" d="M15.4388 37.7098C15.1847 37.4604 14.9288 37.211 14.6711 36.9635C12.0432 34.4444 9.43574 31.9226 6.98931 29.2212C6.39655 28.567 5.2836 27.2978 4.16601 26.6445C3.36666 26.1774 2.53936 25.982 1.78282 26.0788C1.30079 26.1402 0.596393 26.3831 0.242782 27.3071C0.183226 27.4625 0.11252 27.7296 0.0846034 28.0701C0.0399367 28.621 0.0836515 29.6093 0.0976098 29.7461C0.293026 31.7393 0.488436 33.6451 0.8467 35.617C1.17612 37.4316 1.4013 39.2601 1.75584 41.0719C2.28626 43.7826 2.96931 46.3919 3.965 48.9732C4.33443 49.9317 5.41295 50.4091 6.37142 50.0396C7.32896 49.6702 7.80726 48.5926 7.43783 47.6342C6.52124 45.2566 5.89684 42.8539 5.40923 40.3572C5.05748 38.5622 4.83506 36.7494 4.50843 34.9516C4.29627 33.7819 4.1455 32.6364 4.01709 31.4807L4.23019 31.7198C6.73617 34.4863 9.4041 37.0705 12.0953 39.65C13.1021 40.6159 14.0746 41.6098 15.0973 42.5599C15.1801 42.6808 15.5625 43.2354 15.7505 43.4253C16.0631 43.7417 16.4009 43.9184 16.695 44.0059C17.4422 44.2292 18.2007 44.1464 18.8632 43.3089C19.3592 42.6818 19.6448 41.7093 19.6234 40.5479C19.5946 38.952 18.9888 36.8481 18.8604 35.8785C18.0471 29.7433 16.7313 23.6324 16.3814 17.4442C16.3237 16.4187 15.4443 15.6333 14.4189 15.691C13.3934 15.7496 12.6071 16.629 12.6657 17.6544C13.0202 23.9357 14.3444 30.1397 15.1698 36.3679C15.2145 36.6992 15.3206 37.171 15.4388 37.7098Z" fill="black"/>
<path fill-rule="evenodd" clip-rule="evenodd" d="M31.7007 12.2785C29.5902 12.8377 27.476 13.3253 25.7805 14.7751C24.0069 16.2929 23.1052 18.4974 22.7842 20.954C22.3747 24.0881 22.9237 27.6438 23.2643 30.1777C23.4411 31.4898 23.5165 33.3183 23.899 34.9384C24.2284 36.3315 24.7895 37.5793 25.6447 38.4531C26.9884 39.8257 29.0505 39.9643 31.1656 39.1082C33.6093 38.119 36.0427 35.8364 36.7043 34.5057C37.1622 33.5863 36.7871 32.4678 35.8668 32.0109C34.9474 31.5531 33.8299 31.9281 33.372 32.8475C32.9523 33.6915 31.3192 35.0305 29.7689 35.6587C29.4227 35.7982 29.0803 35.9024 28.7564 35.9285C28.588 35.9425 28.4196 35.9667 28.3051 35.8504C27.744 35.2762 27.5467 34.3429 27.3839 33.4002C27.1559 32.0863 27.0926 30.7137 26.9539 29.6808C26.6487 27.4149 26.109 24.2389 26.4748 21.4361C26.6711 19.9332 27.115 18.5327 28.2009 17.604C29.4609 16.5265 31.0837 16.2929 32.6536 15.8769C33.6465 15.6145 34.2393 14.5946 33.9759 13.6017C33.7135 12.6088 32.6936 12.016 31.7007 12.2785Z" fill="black"/>
<path fill-rule="evenodd" clip-rule="evenodd" d="M31.558 22.0851C29.9231 22.9757 28.1755 23.8913 26.4232 24.5203C25.4564 24.8674 24.953 25.9339 25.2991 26.9007C25.6462 27.8676 26.7126 28.371 27.6795 28.0239C29.6094 27.3316 31.5385 26.335 33.3382 25.3551C34.2399 24.8637 34.5739 23.7322 34.0826 22.8305C33.5913 21.9278 32.4607 21.5947 31.558 22.0851Z" fill="black"/>
<path fill-rule="evenodd" clip-rule="evenodd" d="M54.035 23.0728C52.6764 21.4294 51.2405 19.8122 49.7237 18.3344C49.6 18.2144 48.0702 16.9544 47.161 16.4835C46.5478 16.1662 46.0043 16.1085 45.6861 16.1392C44.7602 16.2286 44.1953 16.7302 43.9636 17.5881C43.7421 18.4107 43.6621 19.2678 43.6621 20.1425C42.2858 17.5621 41.0268 14.9081 40.2619 12.1137C40.1986 11.8829 40.1474 11.7749 40.139 11.7554C39.8813 11.1859 39.5155 10.9923 39.3853 10.916C38.745 10.5401 38.1681 10.6034 37.6814 10.8221C37.6219 10.8481 36.3098 11.4306 36.6234 12.9186C36.6485 13.0386 36.8626 13.8938 36.9249 14.2279C36.9798 14.5182 37.0989 14.7797 37.2655 15.0012C38.5478 18.6843 40.5094 22.1637 42.3919 25.5611C42.7986 26.2953 43.1159 27.0518 43.3253 27.8642C43.3867 28.1015 43.4118 28.6384 43.4658 28.9018C43.5579 29.3475 43.7403 29.6462 43.8566 29.7988C44.4614 30.5935 45.2068 30.6745 45.8945 30.4707C46.1886 30.3842 46.7776 30.186 47.1358 29.3326C47.9417 27.4157 47.8505 25.2987 47.617 23.1658C47.5481 22.5349 47.4625 21.904 47.4104 21.2805C49.0659 22.9258 50.6152 24.7403 52.0715 26.554C52.2316 26.7531 53.8526 28.5659 54.2835 28.8357C55.3611 29.5132 56.1976 29.0041 56.5559 28.7008C57.1021 28.2374 57.5321 27.4418 57.707 26.4284C57.9322 25.1173 57.7544 23.3129 57.7368 22.587C57.6186 17.7016 57.4417 12.5948 56.3446 7.82473C56.1148 6.82346 55.1154 6.19809 54.1141 6.42794C53.1128 6.65778 52.4875 7.65816 52.7174 8.65851C53.7587 13.1885 53.9029 18.0394 54.0154 22.6773C54.0182 22.7843 54.0257 22.9183 54.035 23.0728Z" fill="black"/>
<path fill-rule="evenodd" clip-rule="evenodd" d="M61.4717 6.58738C62.1463 9.84898 62.8219 13.0808 63.263 16.4345C63.397 17.4535 64.3322 18.1719 65.3511 18.0379C66.3692 17.9039 67.0876 16.9686 66.9536 15.9497C66.332 11.2197 65.2563 6.72883 64.3555 2.06302C64.0084 0.259606 62.2943 0.511812 62.1892 0.530423C61.9574 0.571367 60.6947 0.840295 60.6528 2.31895C60.65 2.40921 60.7105 3.04753 60.7207 3.29505C60.7431 3.86176 60.7319 4.41547 60.703 4.98311C60.6695 5.63729 60.9776 6.23005 61.4717 6.58738Z" fill="black"/>
<path fill-rule="evenodd" clip-rule="evenodd" d="M66.2884 25.8207C66.4773 25.2456 66.3814 24.5887 65.9757 24.0797C65.3346 23.2766 64.163 23.1454 63.3599 23.7866C62.6182 24.3784 62.4796 25.0996 62.5792 25.9817C62.6945 27.0026 63.6177 27.7377 64.6385 27.6213C65.5718 27.5162 66.266 26.7345 66.2884 25.8207Z" fill="black"/>
<path fill-rule="evenodd" clip-rule="evenodd" d="M31.1552 61.7216C30.9654 61.3196 30.8128 61.0023 30.7765 60.9343C29.0475 57.7007 27.1715 54.5098 25.1289 51.4641C24.5567 50.6107 23.4 50.3828 22.5467 50.9551C21.6934 51.5273 21.4654 52.6841 22.0377 53.5374C24.0114 56.4798 25.8231 59.5646 27.4944 62.6894C27.6219 62.9276 28.4715 65.0446 29.0782 65.9277C29.6282 66.7271 30.3187 67.0127 30.7142 67.0714C31.3423 67.1644 32.325 66.9392 33.1224 65.8747C34.1637 64.4853 35.5139 60.7734 35.7363 60.1574C36.1439 59.0239 36.4892 57.8347 36.8093 56.678C37.416 54.4837 37.765 52.2504 38.0767 50.0003C38.2181 48.9823 37.5063 48.0424 36.4883 47.901C35.4712 47.7605 34.5304 48.4724 34.3899 49.4895C34.1005 51.5767 33.785 53.65 33.222 55.6851C32.9261 56.7524 32.6097 57.8514 32.2337 58.8974C32.1202 59.211 31.6791 60.5063 31.1552 61.7216Z" fill="black"/>
</svg>
