<svg width="77" height="90" viewBox="0 0 77 90" fill="none" xmlns="http://www.w3.org/2000/svg">
<path d="M60.3123 14.5477C59.7245 13.6477 54.4704 12.8914 48.4493 12.715C39.085 12.4701 37.5036 12.8312 36.9488 14.7341C35.3623 19.5033 37.5631 20.5746 48.5088 20.4584C60.3783 20.1537 63.3684 18.7739 60.3123 14.5477Z" fill="black"/>
<path d="M42.8303 43.293C31.2927 35.6974 27.7531 34.5721 28.0062 38.8312C28.109 40.5615 32.0494 43.9337 39.8351 49.0809C46.3676 53.3675 52.0461 56.77 52.7116 56.7304C53.244 56.6988 53.6894 55.2031 53.5865 53.4728C53.4442 51.077 50.7571 48.5653 42.8303 43.293Z" fill="black"/>
<path d="M28.5194 66.6216C22.4612 56.8304 15.2763 48.3083 13.8676 49.327C11.4336 51.0745 12.8767 55.1294 19.1062 63.3075C22.4523 67.9172 26.0803 72.7771 27.1069 74.319C28.1335 75.8608 29.4105 77.1206 30.076 77.081C32.8711 76.9149 32.2107 72.5464 28.5194 66.6216Z" fill="black"/>
</svg>
