<svg width="70" height="70" viewBox="0 0 70 70" fill="none" xmlns="http://www.w3.org/2000/svg">
<rect x="1.5" y="1.5" width="67" height="67" rx="33.5" fill="#C5A1FF"/>
<rect x="1.5" y="1.5" width="67" height="67" rx="33.5" stroke="black" stroke-width="3"/>
<path d="M37.6031 12.0769C37.4371 12.4481 37.3662 15.025 37.407 17.7791L37.4954 22.845L35.7724 23.2833C34.793 23.4815 33.8904 23.6504 33.7313 23.5793C33.5722 23.5081 33.2832 21.0248 33.001 18.0991C32.6112 13.2802 31.7152 10.5889 30.641 10.9992C30.4345 11.0341 29.973 14.1999 29.587 17.9083L28.9166 24.6709L24.4899 26.3177C20.4942 27.7119 20.1399 27.9352 21.1292 28.5685C21.6943 29.0121 23.5276 29.323 25.1669 29.3563C26.83 29.3366 28.2098 29.3811 28.3159 29.4285C28.687 29.5945 28.5231 36.6472 28.1438 37.4955C27.9303 37.9727 26.2004 38.8532 24.2765 39.4562C22.2996 40.0354 20.8529 40.8517 20.9701 41.1587C21.0873 41.4656 22.6667 41.9174 24.4414 42.0749C26.2692 42.2561 27.896 42.6019 28.1192 42.9562C28.3662 43.2576 28.7363 46.4134 28.9404 49.9405C29.4826 57.6906 30.3032 59.8391 32.0065 57.7378C32.4501 57.1727 33.0775 53.6358 33.3994 49.6442L34.0292 42.5454L35.6992 42.0834L37.3455 41.6744L37.6908 47.8732C37.9159 52.4912 38.2775 54.2436 39.0197 54.5755C40.4513 55.2158 41.5783 52.4113 42.5904 45.738C43.01 42.8081 43.452 40.3972 43.5818 40.3916C45.3983 40.3132 51.4364 38.051 51.7684 37.3087C52.3849 35.9302 51.3831 35.6094 47.1069 35.9238L43.3734 36.1628L43.147 32.1168C43.0225 29.8343 42.88 27.7345 42.8688 27.475C42.8813 27.1625 44.6406 26.3587 46.7416 25.6441C48.8427 24.9295 50.7024 24.0434 50.8447 23.7253C51.4612 22.3467 49.6934 21.747 46.172 22.0809C44.1783 22.2708 42.3618 22.3492 42.1497 22.2543C41.8846 22.1357 41.1993 20.1114 40.5503 17.7215C39.3932 13.1957 38.1484 10.8575 37.6031 12.0769ZM37.4962 30.0986C37.6415 31.0542 37.6724 32.9768 37.5511 34.386C37.3923 36.7327 37.2208 36.9741 36.1116 37.1779C35.4685 37.3356 34.6899 37.3692 34.4779 37.2743C34.2128 37.1558 33.9698 35.1384 33.8691 32.8028C33.743 28.6745 33.7374 28.5447 35.0768 28.253C36.9589 27.8859 37.1472 28.0337 37.4962 30.0986Z" fill="black"/>
</svg>
