<svg width="73" height="69" viewBox="0 0 73 69" fill="none" xmlns="http://www.w3.org/2000/svg">
<path d="M38.618 8.36634C36.8542 11.1818 39.381 19.2499 42.9485 22.2227C45.6851 24.4461 47.7099 23.4265 48.243 19.5231C48.8555 15.4089 45.8409 9.56864 42.4096 8.10073C39.7949 6.95342 39.4801 7.0113 38.618 8.36634Z" fill="black"/>
<path d="M15.0587 10.2389C13.2948 13.0544 15.8216 21.1224 19.3891 24.0953C22.1257 26.3186 24.1505 25.299 24.6836 21.3956C25.2961 17.2815 22.2816 11.4412 18.8502 9.97329C16.2355 8.82598 15.9207 8.88386 15.0587 10.2389Z" fill="black"/>
<path d="M5.08334 33.1238C5.80652 37.5808 14.0816 45.7884 21.4378 49.2808C23.7065 50.4133 27.6199 51.2237 31.0797 51.3722C36.5131 51.5697 37.2845 51.3886 44.3032 48.1562C51.0383 45.0543 52.079 44.3138 55.309 40.5618C59.4237 35.7056 63.3541 25.2734 62.1063 22.3644C61.0145 19.819 59.4293 21.0716 56.2532 27.3244C52.7368 34.1694 50.7773 36.7266 46.6852 39.6563C42.7746 42.4153 35.461 44.5643 30.8612 44.3312C25.3966 44.061 15.1223 38.516 9.53561 32.8151C6.69123 29.9447 4.60689 30.0337 5.08334 33.1238Z" fill="black"/>
</svg>
